<svg width="30" height="30" viewBox="0 0 30 30" fill="none" xmlns="http://www.w3.org/2000/svg">
<path d="M5 11L10 10L9.5 18L10.5 20.5C13.3333 20.1667 19.9702 20.5 22.5 20.5C24.5 20.5 24 24 23 24L8 26L6.5 25.5L4.5 12.5L5 11Z" fill="#FDDBF2"/>
<path d="M11.0569 20.9616C10.4815 20.9616 10.001 20.7689 9.61563 20.3835C9.23021 19.9981 9.0375 19.5176 9.0375 18.9422V5.7694C9.0375 5.19399 9.23021 4.71357 9.61563 4.32815C10.001 3.94274 10.4815 3.75003 11.0569 3.75003H17.9437C18.1208 3.75003 18.2693 3.81003 18.3891 3.93003C18.5089 4.05003 18.5687 4.19868 18.5687 4.37597C18.5687 4.55326 18.5089 4.70159 18.3891 4.82097C18.2693 4.94034 18.1208 5.00003 17.9437 5.00003H11.0569C10.8325 5.00003 10.6481 5.07211 10.5038 5.21628C10.3596 5.36065 10.2875 5.54503 10.2875 5.7694V18.7116C10.2875 18.9199 10.3556 19.1002 10.4919 19.2525C10.6281 19.4046 10.8004 19.4807 11.0088 19.4807C11.8981 18.5738 12.9132 17.8727 14.0541 17.3775C15.1949 16.8823 16.3914 16.6347 17.6434 16.6347C18.8982 16.6347 20.0934 16.8826 21.2291 17.3785C22.3649 17.8745 23.3811 18.5752 24.2778 19.4807C24.4909 19.4857 24.6632 19.4096 24.7947 19.2525C24.9261 19.0954 24.9943 18.9151 24.9991 18.7116V11.911C24.9991 11.7339 25.0591 11.5854 25.1791 11.4657C25.2991 11.3459 25.4477 11.286 25.625 11.286C25.8023 11.286 25.9506 11.3459 26.07 11.4657C26.1894 11.5854 26.2491 11.7339 26.2491 11.911V18.9422C26.2491 19.5176 26.0564 19.9981 25.6709 20.3835C25.2855 20.7689 24.8051 20.9616 24.2297 20.9616H11.0569ZM22.9125 7.44722L22.665 8.22347C22.6233 8.31659 22.5704 8.39159 22.5063 8.44847C22.4421 8.50534 22.3555 8.53378 22.2466 8.53378C22.0789 8.53378 21.9492 8.47045 21.8575 8.34378C21.766 8.21711 21.7459 8.07367 21.7972 7.91347L23.3228 3.7244C23.3586 3.61961 23.4138 3.53763 23.4881 3.47847C23.5627 3.41909 23.6589 3.3894 23.7766 3.3894H24.13C24.2479 3.3894 24.3441 3.41909 24.4184 3.47847C24.493 3.53763 24.5481 3.62013 24.5838 3.72597L26.1097 7.93034C26.1609 8.07451 26.146 8.21107 26.065 8.34003C25.9838 8.4692 25.862 8.53378 25.6997 8.53378C25.5964 8.53378 25.5074 8.50815 25.4328 8.4569C25.3584 8.40545 25.3004 8.33326 25.2588 8.24034L24.9725 7.44722H22.9125ZM23.1769 6.7019H24.7297L23.9413 4.23565L23.1769 6.7019ZM17.6434 17.8847C16.7059 17.8847 15.8069 18.0369 14.9462 18.3413C14.0856 18.6459 13.3051 19.1026 12.6047 19.7116H22.6819C21.9815 19.1026 21.2009 18.6459 20.3403 18.3413C19.4799 18.0369 18.5809 17.8847 17.6434 17.8847ZM17.6381 8.22128C18.4877 8.22128 19.2098 8.5168 19.8044 9.10784C20.399 9.69888 20.6963 10.4192 20.6963 11.2688C20.6963 12.1184 20.4007 12.8404 19.8097 13.435C19.2186 14.0296 18.4982 14.3269 17.6484 14.3269C16.7989 14.3269 16.0768 14.0314 15.4822 13.4403C14.8876 12.8493 14.5903 12.129 14.5903 11.2794C14.5903 10.4296 14.8858 9.70753 15.4769 9.11315C16.0679 8.51857 16.7883 8.22128 17.6381 8.22128ZM17.6434 9.47128C17.1482 9.47128 16.7239 9.64795 16.3703 10.0013C16.017 10.3546 15.8403 10.7789 15.8403 11.2741C15.8403 11.7693 16.017 12.1936 16.3703 12.5469C16.7239 12.9002 17.1482 13.0769 17.6434 13.0769C18.1384 13.0769 18.5627 12.9002 18.9162 12.5469C19.2696 12.1936 19.4462 11.7693 19.4462 11.2741C19.4462 10.7789 19.2696 10.3546 18.9162 10.0013C18.5627 9.64795 18.1384 9.47128 17.6434 9.47128ZM7.68188 26.435C7.1225 26.5023 6.6226 26.3672 6.18219 26.0297C5.74198 25.692 5.48865 25.2446 5.42219 24.6875L3.89344 12.5385C3.82594 11.9791 3.96573 11.4779 4.31281 11.035C4.65969 10.5919 5.11281 10.3342 5.67219 10.2619L8.93781 9.72053C9.11552 9.68991 9.27292 9.74012 9.41 9.87116C9.54708 10.0022 9.61563 10.1658 9.61563 10.3621C9.61563 10.5183 9.60569 10.8854 9.49902 11C9.39257 11.1146 9.21979 10.9558 9.0675 10.9871L5.85719 11.5047C5.63281 11.5368 5.45656 11.6329 5.32844 11.7932C5.2001 11.9536 5.15198 12.146 5.18406 12.3703L6.67938 24.5194C6.71146 24.7436 6.8076 24.9198 6.96781 25.0482C7.12802 25.1763 7.32031 25.2243 7.54469 25.1922L22.2609 23.3557C22.4389 23.33 22.5963 23.3694 22.7331 23.4738C22.8702 23.5782 22.9493 23.7191 22.9703 23.8966C22.9959 24.0745 22.9566 24.2269 22.8522 24.3538C22.7478 24.4807 22.6069 24.5542 22.4294 24.5744L7.68188 26.435Z" fill="#EB79C5"/>
</svg>
