<svg width="30" height="30" viewBox="0 0 30 30" fill="none" xmlns="http://www.w3.org/2000/svg">
<rect x="12" y="9" width="6" height="6" fill="#FCDBC2"/>
<path d="M11 23.5L14.5 15.5L12.5 15L8 17.5L6 21.5H9.5L11 23.5Z" fill="#FCDBC2"/>
<circle cx="15" cy="7" r="7" fill="#FCDBC2"/>
<path d="M18 9.5C19.2 7.5 21.8333 7 23 7L21.5 14L18 13.5V12V9.5Z" fill="white"/>
<path d="M12 9C10.8 7 8.16667 6.5 7 6.5L8.5 13.5L12 13V11.5V9Z" fill="white"/>
<path d="M18.5 23.5L15 15.5L17 15L21.5 17.5L23.5 21.5H20L18.5 23.5Z" fill="#FCDBC2"/>
<path d="M26.6438 9.00255C26.5061 8.34598 26.2009 7.73676 25.7581 7.23481C25.3153 6.73285 24.7503 6.35546 24.1185 6.13974C23.3585 5.96 22.5682 5.95357 21.8054 6.12093C20.0203 6.52455 18.4241 7.52514 17.2777 8.9592C16.8252 8.67198 16.3009 8.51995 15.7658 8.52079H14.1985C13.6719 8.52007 13.1555 8.66738 12.7077 8.94612C11.5631 7.51973 9.97268 6.52439 8.19466 6.12175C7.43006 5.95366 6.63771 5.96009 5.87591 6.14056C5.24487 6.35687 4.68063 6.73453 4.2386 7.23644C3.79657 7.73836 3.49194 8.34726 3.35464 9.00337C2.95247 10.7269 2.89167 12.5132 3.17571 14.2603C3.45549 16.2316 4.4152 17.5624 5.88079 18.009C6.2565 18.1049 6.64324 18.15 7.03081 18.1431C7.10509 18.1431 7.18208 18.1415 7.26179 18.1382L5.87428 21.41C5.84218 21.4853 5.83017 21.5678 5.83945 21.6492C5.84873 21.7306 5.87896 21.8082 5.92717 21.8743C5.97538 21.9403 6.0399 21.9926 6.11435 22.026C6.1888 22.0593 6.27061 22.0725 6.35169 22.0643L9.08361 21.792L10.9233 23.8442C10.976 23.903 11.0426 23.9475 11.1169 23.9736C11.1912 23.9998 11.2709 24.0066 11.3486 23.9936C11.4262 23.9805 11.4994 23.948 11.5612 23.899C11.6231 23.85 11.6716 23.7862 11.7025 23.7133L15.0004 15.9379L18.2984 23.7133C18.3292 23.7862 18.3778 23.85 18.4397 23.899C18.5015 23.948 18.5747 23.9805 18.6523 23.9936C18.73 24.0066 18.8096 23.9998 18.884 23.9736C18.9583 23.9475 19.0249 23.903 19.0776 23.8442L20.9173 21.792L23.6492 22.0643C23.7303 22.0725 23.8121 22.0593 23.8865 22.026C23.961 21.9926 24.0255 21.9403 24.0737 21.8743C24.1219 21.8082 24.1522 21.7306 24.1614 21.6492C24.1707 21.5678 24.1587 21.4853 24.1266 21.41L22.7391 18.1382C22.8188 18.1415 22.8958 18.1431 22.9701 18.1431C23.3585 18.1501 23.746 18.105 24.1225 18.009C25.5865 17.5632 26.5454 16.2324 26.8252 14.2611C27.1086 12.5133 27.0469 10.7264 26.6438 9.00255ZM15.7658 9.45978C16.2718 9.46087 16.7568 9.66375 17.1143 10.0239C17.4719 10.3841 17.6728 10.8722 17.673 11.3811V12.8772C17.6728 13.3861 17.4719 13.8742 17.1143 14.2344C16.7568 14.5946 16.2718 14.7974 15.7658 14.7985H14.1985C13.6925 14.7974 13.2075 14.5946 12.85 14.2344C12.4924 13.8742 12.2915 13.3861 12.2913 12.8772V11.3811C12.2915 10.8722 12.4924 10.3841 12.85 10.0239C13.2075 9.66375 13.6925 9.46087 14.1985 9.45978H15.7658ZM6.14755 17.1051C4.67058 16.6553 4.23139 15.0464 4.10126 14.1262C3.83571 12.5069 3.88848 10.8509 4.2566 9.25203C4.36134 8.7533 4.58935 8.28916 4.91956 7.90245C5.24977 7.51575 5.67154 7.21896 6.14593 7.03948C6.17602 7.03048 9.09255 6.20764 12.0018 9.56285C11.6956 9.93627 11.4888 10.3818 11.4007 10.8577L10.0669 10.2851C10.0102 10.2602 9.94914 10.2469 9.88728 10.2459C9.82542 10.2449 9.76397 10.2562 9.70649 10.2792C9.64901 10.3022 9.59662 10.3365 9.55237 10.3799C9.50811 10.4234 9.47285 10.4753 9.44863 10.5325C9.42441 10.5898 9.4117 10.6513 9.41124 10.7135C9.41079 10.7757 9.42259 10.8374 9.44597 10.895C9.46935 10.9526 9.50385 11.005 9.54746 11.0491C9.59108 11.0933 9.64296 11.1283 9.7001 11.1521L11.3536 11.8605V12.905L9.7001 13.6133C9.64296 13.6372 9.59108 13.6722 9.54746 13.7163C9.50385 13.7604 9.46935 13.8128 9.44597 13.8704C9.42259 13.928 9.41079 13.9897 9.41124 14.0519C9.4117 14.1141 9.42441 14.1757 9.44863 14.2329C9.47285 14.2902 9.50811 14.342 9.55237 14.3855C9.59662 14.429 9.64901 14.4632 9.70649 14.4862C9.76397 14.5092 9.82542 14.5205 9.88728 14.5195C9.94914 14.5185 10.0102 14.5052 10.0669 14.4803L11.5252 13.8562C11.6271 14.1365 11.772 14.3989 11.9546 14.6341C10.9589 15.8645 9.5862 16.7288 8.0507 17.092C7.42462 17.2343 6.77528 17.2382 6.14755 17.1035V17.1051ZM11.1258 22.6623L9.61876 20.9814C9.56962 20.9264 9.5083 20.8839 9.43978 20.8572C9.37125 20.8304 9.29744 20.8203 9.22431 20.8276L7.04463 21.0452L8.3378 17.9959C10.0255 17.5757 11.5345 16.6218 12.6427 15.2746C13.0658 15.5543 13.556 15.7145 14.0619 15.7383L11.1258 22.6623ZM20.7717 20.8276C20.6986 20.8203 20.6248 20.8304 20.5562 20.8572C20.4877 20.8839 20.4264 20.9264 20.3772 20.9814L18.8702 22.6623L15.9333 15.7367C16.4366 15.7076 16.923 15.5435 17.342 15.2615C18.4517 16.6157 19.9653 17.5748 21.659 17.9967L22.9522 21.046L20.7717 20.8276ZM25.8956 14.1262C25.7654 15.0455 25.3262 16.6553 23.8517 17.1043C23.8216 17.1133 20.9238 17.9304 18.026 14.6161C18.2039 14.3824 18.3449 14.1225 18.444 13.8456L19.9299 14.482C19.9866 14.5068 20.0477 14.5202 20.1095 14.5212C20.1714 14.5222 20.2328 14.5108 20.2903 14.4878C20.3478 14.4648 20.4002 14.4306 20.4445 14.3871C20.4887 14.3437 20.524 14.2918 20.5482 14.2345C20.5724 14.1773 20.5851 14.1158 20.5856 14.0536C20.586 13.9913 20.5742 13.9296 20.5509 13.872C20.5275 13.8144 20.493 13.7621 20.4494 13.7179C20.4057 13.6738 20.3539 13.6388 20.2967 13.6149L18.6107 12.8927V11.876L20.2967 11.1546C20.3539 11.1307 20.4057 11.0957 20.4494 11.0516C20.493 11.0075 20.5275 10.9551 20.5509 10.8975C20.5742 10.8399 20.586 10.7782 20.5856 10.716C20.5851 10.6537 20.5724 10.5922 20.5482 10.535C20.524 10.4777 20.4887 10.4259 20.4445 10.3824C20.4002 10.3389 20.3478 10.3047 20.2903 10.2817C20.2328 10.2587 20.1714 10.2474 20.1095 10.2484C20.0477 10.2494 19.9866 10.2627 19.9299 10.2875L18.566 10.8716C18.481 10.3993 18.2791 9.95627 17.9788 9.58329C18.9791 8.32082 20.3704 7.4309 21.9315 7.05503C22.5621 6.91001 23.2166 6.90527 23.8493 7.04112C24.324 7.22051 24.7461 7.51735 25.0767 7.90421C25.4072 8.29106 25.6354 8.75546 25.7402 9.25448C26.1083 10.8534 26.161 12.5093 25.8956 14.1286V14.1262Z" fill="#F49B50" stroke="#F49B50" stroke-width="0.2"/>
</svg>
