<svg width="30" height="30" viewBox="0 0 30 30" fill="none" xmlns="http://www.w3.org/2000/svg">
<circle cx="12" cy="16" r="7" fill="#E1D9FF"/>
<path d="M17.5 15L11 8.5H16.5L19.5 12.5L21.5 15.5L18 23H10L17.5 15Z" fill="white"/>
<path d="M16.3703 15L8.89188 7.41813C8.83104 7.35729 8.79219 7.29552 8.77531 7.23281C8.75844 7.1701 8.75 7.10521 8.75 7.03812V6.74937C8.75 6.60708 8.79833 6.48833 8.895 6.39313C8.99188 6.29771 9.11177 6.25 9.25469 6.25H20.4806C20.6944 6.25 20.876 6.3251 21.0256 6.47531C21.1752 6.62531 21.25 6.8076 21.25 7.02219C21.25 7.23656 21.1752 7.42188 21.0256 7.57812C20.876 7.73438 20.6944 7.8125 20.4806 7.8125H11.3775L17.7044 14.2859C17.895 14.4818 17.9903 14.7182 17.9903 14.9953C17.9903 15.2724 17.895 15.512 17.7044 15.7141L11.3775 22.2116H20.4806C20.6944 22.2116 20.876 22.2866 21.0256 22.4366C21.1752 22.5868 21.25 22.7692 21.25 22.9837C21.25 23.1981 21.1752 23.3794 21.0256 23.5275C20.876 23.6758 20.6944 23.75 20.4806 23.75H9.10344C9.00594 23.75 8.9226 23.7155 8.85344 23.6466C8.78448 23.5774 8.75 23.4941 8.75 23.3966V22.8734C8.75 22.8184 8.75833 22.7722 8.775 22.7347C8.79187 22.6972 8.82125 22.6615 8.86312 22.6275L16.3703 15Z" fill="#8066F0"/>
</svg>
