<svg width="30" height="30" viewBox="0 0 30 30" fill="none" xmlns="http://www.w3.org/2000/svg">
<path d="M14.9407 12.005C15.1837 11.8993 15.3737 11.6998 15.4674 11.4519L17.3487 6.47375C17.6685 5.62773 18.8652 5.62773 19.185 6.47375L21.0663 11.4519C21.16 11.6998 21.35 11.8993 21.593 12.005L26.4101 14.0999C27.1968 14.442 27.1968 15.5579 26.4101 15.9L21.593 17.9949C21.35 18.1006 21.16 18.3001 21.0663 18.548L19.185 23.5262C18.8652 24.3722 17.6685 24.3722 17.3487 23.5262L15.4674 18.548C15.3737 18.3001 15.1837 18.1006 14.9407 17.9949L10.1236 15.9C9.33688 15.5579 9.33688 14.4421 10.1236 14.0999L14.9407 12.005Z" fill="url(#paint0_linear_4041_3356)"/>
<path d="M8.07235 12.2298C8.40362 11.4132 9.56025 11.4134 9.89169 12.2298L10.2022 12.9955L9.73251 13.2005C8.159 13.8848 8.159 16.1158 9.73251 16.8001L13.9942 18.6537L11.5636 19.64C11.3176 19.7397 11.1223 19.935 11.0226 20.181L9.89169 22.9691C9.56048 23.7861 8.40357 23.7861 8.07235 22.9691L6.94247 20.181C6.84275 19.935 6.64744 19.7397 6.40146 19.64L3.61239 18.5091C2.79596 18.1777 2.79578 17.0211 3.61239 16.6898L6.40146 15.5599C6.64745 15.4602 6.84274 15.2649 6.94247 15.0189L8.07235 12.2298Z" fill="url(#paint1_linear_4041_3356)"/>
<defs>
<linearGradient id="paint0_linear_4041_3356" x1="26.8085" y1="13.1431" x2="9.5395" y2="14.8143" gradientUnits="userSpaceOnUse">
<stop stop-color="#8066F0"/>
<stop offset="1" stop-color="#191960"/>
</linearGradient>
<linearGradient id="paint1_linear_4041_3356" x1="12.0192" y1="24.1517" x2="4.99737" y2="12.9197" gradientUnits="userSpaceOnUse">
<stop stop-color="#191960"/>
<stop offset="1" stop-color="#8066F0"/>
</linearGradient>
</defs>
</svg>
