<svg width="24" height="24" viewBox="0 0 24 24" fill="none" xmlns="http://www.w3.org/2000/svg">
<path d="M10.5 8.75C10.5 9.7165 9.7165 10.5 8.75 10.5C7.7835 10.5 7 9.7165 7 8.75C7 7.7835 7.7835 7 8.75 7C9.7165 7 10.5 7.7835 10.5 8.75Z" fill="#191960"/>
<path fill-rule="evenodd" clip-rule="evenodd" d="M3 7C3 4.79086 4.79086 3 7 3H17C19.2091 3 21 4.79086 21 7V17C21 19.2091 19.2091 21 17 21H7C4.79086 21 3 19.2091 3 17V7ZM7 4.5H17C18.3807 4.5 19.5 5.61929 19.5 7V11.2292L18.6468 10.3759C18.1621 9.89121 17.7549 9.48407 17.3899 9.19199C17.006 8.88479 16.5995 8.64626 16.1027 8.57557C15.8574 8.54065 15.6084 8.54065 15.363 8.57557C14.8663 8.64626 14.4597 8.88479 14.0758 9.19199C13.7108 9.48407 13.3037 9.8912 12.819 10.3759L4.8759 18.319C4.63763 17.9362 4.5 17.4842 4.5 17V7C4.5 5.61929 5.61929 4.5 7 4.5ZM6.01695 19.2993C6.3187 19.4285 6.651 19.5 7 19.5H17C18.3807 19.5 19.5 18.3807 19.5 17V13.3505L17.6155 11.4661C17.0936 10.9441 16.745 10.5971 16.4527 10.3632C16.172 10.1385 16.014 10.078 15.8914 10.0606C15.7862 10.0456 15.6795 10.0456 15.5744 10.0606C15.4518 10.078 15.2938 10.1385 15.013 10.3632C14.7207 10.5971 14.3722 10.9441 13.8502 11.4661L6.01695 19.2993Z" fill="#191960"/>
<circle cx="7.5" cy="7.5" r="6.5" fill="#191960"/>
<path d="M6.82929 3.98996C7.19942 3.61983 7.79992 3.61994 8.17012 3.98996L10.8508 6.6716C11.0094 6.83025 11.0094 7.08717 10.8508 7.24582C10.6921 7.40426 10.4351 7.4044 10.2766 7.24582L7.90644 4.8757V11.157C7.90622 11.381 7.72428 11.563 7.50019 11.5632C7.27596 11.5632 7.09416 11.3811 7.09394 11.157V4.87472L4.72285 7.24582C4.56421 7.40442 4.30727 7.40442 4.14863 7.24582C3.98999 7.08718 3.99002 6.83025 4.14863 6.6716L6.82929 3.98996Z" fill="white"/>
</svg>
