<svg width="30" height="30" viewBox="0 0 30 30" fill="none" xmlns="http://www.w3.org/2000/svg">
<path d="M5.5 24V5.5H24.5V24H5.5Z" fill="#CCE9E1"/>
<rect x="22" y="4" width="4" height="3" fill="white"/>
<rect x="4" y="4" width="4" height="3" fill="white"/>
<rect x="4" y="23" width="4" height="3" fill="white"/>
<rect x="23" y="23" width="3" height="3" fill="white"/>
<path d="M10.5072 19.2475L14.5025 8.98309C14.5271 8.90955 14.5724 8.85226 14.6385 8.81122C14.7043 8.77038 14.7743 8.74997 14.8485 8.74997H15.1438C15.2242 8.74997 15.2971 8.77038 15.3625 8.81122C15.4282 8.85226 15.4732 8.90955 15.4975 8.98309L19.541 19.2453C19.613 19.4407 19.5946 19.6154 19.4857 19.7693C19.3767 19.9231 19.22 20 19.0157 20C18.8932 20 18.7846 19.9707 18.69 19.9122C18.5954 19.8536 18.5249 19.7627 18.4785 19.6393L17.3366 16.7403H12.6778L11.536 19.6465C11.4895 19.754 11.423 19.8398 11.3366 19.9037C11.2501 19.9679 11.1492 20 11.0338 20C10.8286 20 10.6715 19.9206 10.5625 19.7618C10.4536 19.6033 10.4351 19.4318 10.5072 19.2475ZM13.0482 15.7403H16.9519L15.0385 10.7162H14.9135L13.0482 15.7403ZM2.98065 26.0097V22.7403C2.98065 22.4542 3.07742 22.2144 3.27096 22.0209C3.46451 21.8274 3.7043 21.7306 3.99034 21.7306H5.00003V8.26934H3.98628C3.69899 8.26934 3.45961 8.17257 3.26815 7.97903C3.07649 7.78549 2.98065 7.54569 2.98065 7.25965V3.99028C2.98065 3.70424 3.07742 3.46444 3.27096 3.2709C3.46451 3.07736 3.7043 2.98059 3.99034 2.98059H7.25971C7.54576 2.98059 7.78555 3.07736 7.97909 3.2709C8.17263 3.46444 8.2694 3.70424 8.2694 3.99028V4.99997H21.7307V3.98622C21.7307 3.69892 21.8274 3.45955 22.021 3.26809C22.2145 3.07642 22.4543 2.98059 22.7403 2.98059H26.0097C26.2958 2.98059 26.5355 3.07736 26.7291 3.2709C26.9226 3.46444 27.0194 3.70424 27.0194 3.99028V7.25965C27.0194 7.54569 26.9226 7.78549 26.7291 7.97903C26.5355 8.17257 26.2958 8.26934 26.0097 8.26934H25V21.7306H26.0138C26.3011 21.7306 26.5404 21.8274 26.7319 22.0209C26.9236 22.2144 27.0194 22.4542 27.0194 22.7403V26.0097C27.0194 26.2957 26.9226 26.5355 26.7291 26.729C26.5355 26.9226 26.2958 27.0193 26.0097 27.0193H22.7403C22.4543 27.0193 22.2145 26.9226 22.021 26.729C21.8274 26.5355 21.7307 26.2957 21.7307 26.0097V25H8.2694V26.0137C8.2694 26.301 8.17263 26.5404 7.97909 26.7318C7.78555 26.9235 7.54576 27.0193 7.25971 27.0193H3.99034C3.7043 27.0193 3.46451 26.9226 3.27096 26.729C3.07742 26.5355 2.98065 26.2957 2.98065 26.0097ZM8.2694 23.75H21.7307V22.7362C21.7307 22.4489 21.8274 22.2096 22.021 22.0181C22.2145 21.8264 22.4543 21.7306 22.7403 21.7306H23.75V8.26934H22.7363C22.449 8.26934 22.2096 8.17257 22.0182 7.97903C21.8265 7.78549 21.7307 7.54569 21.7307 7.25965V6.24997H8.2694V7.26372C8.2694 7.55101 8.17263 7.79038 7.97909 7.98184C7.78555 8.17351 7.54576 8.26934 7.25971 8.26934H6.25003V21.7306H7.26378C7.55107 21.7306 7.79044 21.8274 7.9819 22.0209C8.17357 22.2144 8.2694 22.4542 8.2694 22.7403V23.75ZM4.23065 7.01934H7.0194V4.23059H4.23065V7.01934ZM22.9807 7.01934H25.7694V4.23059H22.9807V7.01934ZM22.9807 25.7693H25.7694V22.9806H22.9807V25.7693ZM4.23065 25.7693H7.0194V22.9806H4.23065V25.7693Z" fill="#32A687"/>
</svg>
