<svg width="30" height="30" viewBox="0 0 30 30" fill="none" xmlns="http://www.w3.org/2000/svg">
<circle cx="15" cy="23" r="7" fill="#CFE2F7"/>
<rect x="7" y="7" width="16" height="16" fill="white"/>
<path d="M8.26937 23.75C7.69396 23.75 7.21354 23.5572 6.82812 23.1718C6.44271 22.7864 6.25 22.306 6.25 21.7306V19.3268C6.25 19.1489 6.30969 19.0003 6.42906 18.8809C6.54844 18.7615 6.69708 18.7018 6.875 18.7018C7.05292 18.7018 7.20156 18.7615 7.32094 18.8809C7.44031 19.0003 7.5 19.1489 7.5 19.3268V21.7306C7.5 21.9231 7.5801 22.0994 7.74031 22.2596C7.90052 22.4198 8.07687 22.5 8.26937 22.5H21.7306C21.9231 22.5 22.0995 22.4198 22.2597 22.2596C22.4199 22.0994 22.5 21.9231 22.5 21.7306V19.3268C22.5 19.1489 22.5597 19.0003 22.6791 18.8809C22.7984 18.7615 22.9471 18.7018 23.125 18.7018C23.3029 18.7018 23.4516 18.7615 23.5709 18.8809C23.6903 19.0003 23.75 19.1489 23.75 19.3268V21.7306C23.75 22.306 23.5573 22.7864 23.1719 23.1718C22.7865 23.5572 22.306 23.75 21.7306 23.75H8.26937ZM14.375 8.6587L11.9109 11.1224C11.7893 11.2443 11.6447 11.3081 11.4772 11.3137C11.3097 11.3193 11.1571 11.2532 11.0194 11.1153C10.8863 10.9776 10.8185 10.8302 10.8162 10.6731C10.8137 10.516 10.8815 10.3685 11.0194 10.2306L14.2931 6.95683C14.4023 6.84766 14.5137 6.7711 14.6275 6.72714C14.7413 6.68297 14.8654 6.66089 15 6.66089C15.1346 6.66089 15.2587 6.68297 15.3725 6.72714C15.4863 6.7711 15.5977 6.84766 15.7069 6.95683L18.9806 10.2306C19.1025 10.3525 19.1663 10.4959 19.1719 10.6609C19.1775 10.8261 19.1138 10.9776 18.9806 11.1153C18.8429 11.2532 18.6944 11.3233 18.535 11.3256C18.3754 11.3281 18.2268 11.2604 18.0891 11.1224L15.625 8.6587V18.8462C15.625 19.0241 15.5653 19.1728 15.4459 19.2921C15.3266 19.4115 15.1779 19.4712 15 19.4712C14.8221 19.4712 14.6734 19.4115 14.5541 19.2921C14.4347 19.1728 14.375 19.0241 14.375 18.8462V8.6587Z" fill="#337AB7"/>
</svg>
