<svg width="2048" height="1536" viewBox="0 0 2048 1536" fill="none" xmlns="http://www.w3.org/2000/svg">
<g clip-path="url(#clip0_97_1284)">
<rect width="2048" height="1536" fill="#385980"/>
<rect width="2048" height="1536" fill="#385980"/>
<path d="M221.5 -60.5V501C221.5 531.376 196.876 556 166.5 556H-120" stroke="#73ADEB" stroke-width="13"/>
<path d="M-48 325H628C658.376 325 683 349.624 683 380V622.5C683 652.876 658.376 677.5 628 677.5H398C367.624 677.5 343 702.124 343 732.5V1271C343 1301.38 318.376 1326 288 1326H-48" stroke="#73ADEB" stroke-width="13"/>
<path d="M1277 -50V603C1277 633.376 1301.62 658 1332 658H1560C1590.38 658 1615 633.376 1615 603V211C1615 180.624 1639.62 156 1670 156H2096" stroke="#73ADEB" stroke-width="13"/>
<path d="M2096 677.5H1830.5C1800.12 677.5 1775.5 702.124 1775.5 732.5V1572.5M2096 1318.5H1349.5C1319.12 1318.5 1294.5 1293.88 1294.5 1263.5V610.5" stroke="#73ADEB" stroke-width="13"/>
<path d="M2117 922.5H1321" stroke="#73ADEB" stroke-width="13"/>
<path d="M-167.5 927H754.5C784.876 927 809.5 951.624 809.5 982V1644" stroke="#73ADEB" stroke-width="13"/>
<path d="M1428.81 460.218C1459.04 475.958 1478 507.184 1478 541.236V1002.42C1478 1037.03 1458.43 1068.66 1427.44 1084.14L1064.63 1265.35C1038.89 1278.21 1008.6 1278.22 982.857 1265.37L620.595 1084.63C589.589 1069.17 570 1037.52 570 1002.9V541.66C570 507.652 588.909 476.458 619.076 460.698L981.431 271.403C1007.94 257.553 1039.56 257.531 1066.09 271.346L1428.81 460.218Z" fill="#8CC7F2"/>
<rect x="760" y="559" width="498" height="286" rx="20" fill="#8CC7F2"/>
<rect x="797" y="512" width="498" height="286" rx="20" fill="#385980"/>
<rect x="843" y="560" width="75" height="10" rx="5" fill="white"/>
<path d="M980 599C980 596.239 982.239 594 985 594H1024V604H985C982.239 604 980 601.761 980 599V599Z" fill="white"/>
<path d="M934 565C934 562.239 936.239 560 939 560H1024V570H939C936.239 570 934 567.761 934 565V565Z" fill="#73ADEB"/>
<rect x="843" y="594" width="121" height="10" rx="5" fill="#73ADEB"/>
<path d="M843 633C843 630.239 845.239 628 848 628H1024V638H848C845.239 638 843 635.761 843 633V633Z" fill="white"/>
<path d="M843 667C843 664.239 845.239 662 848 662H1024V672H848C845.239 672 843 669.761 843 667V667Z" fill="#73ADEB"/>
<path d="M843 701C843 698.239 845.239 696 848 696H1024V706H848C845.239 706 843 703.761 843 701V701Z" fill="#73ADEB"/>
<path d="M870.059 726.5H739.458C724.927 726.5 713.729 739.311 715.673 753.711L749.693 1005.71C751.301 1017.62 761.464 1026.5 773.478 1026.5H1258.35C1270.44 1026.5 1280.64 1017.51 1282.16 1005.52L1323.57 679.02C1325.39 664.681 1314.22 652 1299.76 652H964.441C958.076 652 951.971 654.529 947.471 659.029L887.029 719.471C882.529 723.971 876.424 726.5 870.059 726.5Z" fill="#73ADEB" stroke="#385980" stroke-width="8"/>
<mask id="mask0_97_1284" style="mask-type:alpha" maskUnits="userSpaceOnUse" x="1024" y="501" width="303" height="526">
<rect x="1024" y="501" width="303" height="526" fill="#22252E"/>
</mask>
<g mask="url(#mask0_97_1284)">
<rect x="760" y="559" width="498" height="286" rx="20" fill="#385980"/>
<rect x="797" y="512" width="498" height="286" rx="20" fill="#385980"/>
<path d="M870.059 726.5H739.458C724.927 726.5 713.729 739.311 715.673 753.711L749.693 1005.71C751.301 1017.62 761.464 1026.5 773.478 1026.5H1258.35C1270.44 1026.5 1280.64 1017.51 1282.16 1005.52L1323.57 679.02C1325.39 664.681 1314.22 652 1299.76 652H964.441C958.076 652 951.971 654.529 947.471 659.029L887.029 719.471C882.529 723.971 876.424 726.5 870.059 726.5Z" fill="#6199D9" stroke="#385980" stroke-width="8"/>
</g>
<path d="M1028 452V1083" stroke="url(#paint0_linear_97_1284)" stroke-width="9"/>
<g clip-path="url(#clip1_97_1284)">
<path d="M1168.93 965.532H1164.11V984.627H1168.93V965.532Z" fill="white"/>
<path d="M1207.83 971.004C1207.63 970.903 1206.08 969.984 1203.77 969.984C1200.65 969.984 1198.49 972.153 1198.49 975.077C1198.49 977.915 1200.56 980.175 1203.77 980.175C1206.04 980.175 1207.62 979.276 1207.83 979.162V984.287C1207.23 984.456 1205.58 984.966 1203.43 984.966C1198.01 984.966 1193.25 981.23 1193.25 975.077C1193.25 969.375 1197.56 965.193 1203.43 965.193C1205.7 965.193 1207.37 965.744 1207.83 965.878V971.004Z" fill="white"/>
<path d="M1157.48 971.004C1157.29 970.903 1155.74 969.984 1153.43 969.984C1150.3 969.984 1148.14 972.153 1148.14 975.077C1148.14 977.915 1150.21 980.175 1153.43 980.175C1155.7 980.175 1157.27 979.276 1157.48 979.162V984.287C1156.88 984.456 1155.24 984.966 1153.08 984.966C1147.66 984.966 1142.9 981.23 1142.9 975.077C1142.9 969.375 1147.21 965.193 1153.08 965.193C1155.35 965.193 1157.03 965.744 1157.48 965.878V971.004Z" fill="white"/>
<path d="M1223 970.056C1220.14 970.056 1218.01 972.305 1218.01 975.077C1218.01 977.855 1220.14 980.103 1223 980.103C1225.86 980.103 1227.99 977.855 1227.99 975.077C1227.99 972.305 1225.86 970.056 1223 970.056ZM1233.1 975.077C1233.1 980.54 1228.88 984.966 1223 984.966C1217.12 984.966 1212.9 980.54 1212.9 975.077C1212.9 969.624 1217.12 965.193 1223 965.193C1228.88 965.193 1233.1 969.624 1233.1 975.077Z" fill="white"/>
<path d="M1187.23 969.872C1187.15 969.849 1185.12 969.289 1183.46 969.289C1181.52 969.289 1180.47 969.936 1180.47 970.854C1180.47 972.017 1181.89 972.423 1182.68 972.673L1184.01 973.096C1187.14 974.091 1188.57 976.232 1188.57 978.558C1188.57 983.356 1184.35 984.967 1180.66 984.967C1178.09 984.967 1175.69 984.496 1175.45 984.445V980.051C1175.88 980.158 1177.9 980.761 1180.01 980.761C1182.41 980.761 1183.51 980.06 1183.51 978.978C1183.51 978.011 1182.55 977.452 1181.36 977.076C1181.07 976.979 1180.63 976.841 1180.33 976.744C1177.64 975.895 1175.4 974.318 1175.4 971.157C1175.4 967.586 1178.08 965.188 1182.53 965.188C1184.87 965.188 1187.08 965.757 1187.23 965.795V969.872Z" fill="white"/>
<path d="M1137.79 945.01C1137.79 943.694 1136.71 942.627 1135.4 942.627C1134.08 942.627 1133 943.694 1133 945.01V950.022C1133 951.346 1134.08 952.414 1135.4 952.414C1136.71 952.414 1137.79 951.346 1137.79 950.022V945.01Z" fill="white"/>
<path d="M1150.94 938.431C1150.94 937.115 1149.87 936.045 1148.55 936.045C1147.23 936.045 1146.15 937.115 1146.15 938.431V950.023C1146.15 951.346 1147.23 952.413 1148.55 952.413C1149.87 952.413 1150.94 951.346 1150.94 950.023V938.431Z" fill="white"/>
<path d="M1164.1 929.429C1164.1 928.114 1163.02 927.045 1161.7 927.045C1160.38 927.045 1159.31 928.114 1159.31 929.429V954.786C1159.31 956.109 1160.38 957.178 1161.7 957.178C1163.02 957.178 1164.1 956.109 1164.1 954.786V929.429Z" fill="white"/>
<path d="M1177.25 938.431C1177.25 937.115 1176.17 936.045 1174.86 936.045C1173.54 936.045 1172.46 937.115 1172.46 938.431V950.023C1172.46 951.346 1173.54 952.413 1174.86 952.413C1176.17 952.413 1177.25 951.346 1177.25 950.023V938.431Z" fill="white"/>
<path d="M1190.39 945.01C1190.39 943.694 1189.32 942.627 1188.01 942.627C1186.69 942.627 1185.61 943.694 1185.61 945.01V950.022C1185.61 951.346 1186.69 952.414 1188.01 952.414C1189.32 952.414 1190.39 951.346 1190.39 950.022V945.01Z" fill="white"/>
<path d="M1190.39 945.01C1190.39 943.694 1189.32 942.627 1188 942.627C1186.68 942.627 1185.6 943.694 1185.6 945.01V950.022C1185.6 951.346 1186.68 952.414 1188 952.414C1189.32 952.414 1190.39 951.346 1190.39 950.022V945.01Z" fill="white"/>
<path d="M1203.55 938.431C1203.55 937.115 1202.47 936.045 1201.15 936.045C1199.83 936.045 1198.76 937.115 1198.76 938.431V950.023C1198.76 951.346 1199.83 952.413 1201.15 952.413C1202.47 952.413 1203.55 951.346 1203.55 950.023V938.431Z" fill="white"/>
<path d="M1216.7 929.429C1216.7 928.114 1215.62 927.045 1214.31 927.045C1212.99 927.045 1211.91 928.114 1211.91 929.429V954.786C1211.91 956.109 1212.99 957.178 1214.31 957.178C1215.62 957.178 1216.7 956.109 1216.7 954.786V929.429Z" fill="white"/>
<path d="M1229.85 938.431C1229.85 937.115 1228.78 936.045 1227.46 936.045C1226.14 936.045 1225.06 937.115 1225.06 938.431V950.023C1225.06 951.346 1226.14 952.413 1227.46 952.413C1228.78 952.413 1229.85 951.346 1229.85 950.023V938.431Z" fill="white"/>
<path d="M1242.99 945.01C1242.99 943.694 1241.92 942.627 1240.61 942.627C1239.29 942.627 1238.22 943.694 1238.22 945.01V950.022C1238.22 951.346 1239.29 952.414 1240.61 952.414C1241.92 952.414 1242.99 951.346 1242.99 950.022V945.01Z" fill="white"/>
<path d="M1240.24 982.113V982.412H1239.39V984.626H1239.04V982.412H1238.18V982.113H1240.24Z" fill="white"/>
<path d="M1240.42 982.113H1240.97L1241.72 984.175H1241.73L1242.46 982.113H1243V984.626H1242.64V982.566H1242.63L1241.86 984.626H1241.53L1240.79 982.566H1240.77V984.626H1240.42V982.113Z" fill="white"/>
</g>
<circle cx="1615.5" cy="375.5" r="49.5" fill="#73ADEB"/>
<circle cx="1927.5" cy="668.5" r="49.5" fill="#73ADEB"/>
<circle cx="343.5" cy="1108.5" r="49.5" fill="#73ADEB"/>
<circle cx="125.5" cy="559.5" r="49.5" fill="#73ADEB"/>
</g>
<defs>
<linearGradient id="paint0_linear_97_1284" x1="1028.5" y1="452" x2="1028.5" y2="1083" gradientUnits="userSpaceOnUse">
<stop stop-color="#4285F4" stop-opacity="0"/>
<stop offset="0.5" stop-color="#8CC7F2"/>
<stop offset="1" stop-color="#4285F4" stop-opacity="0"/>
</linearGradient>
<clipPath id="clip0_97_1284">
<rect width="2048" height="1536" fill="white"/>
</clipPath>
<clipPath id="clip1_97_1284">
<rect width="110" height="58" fill="white" transform="translate(1133 927)"/>
</clipPath>
</defs>
</svg>
