<svg width="297" height="297" viewBox="0 0 297 297" fill="none" xmlns="http://www.w3.org/2000/svg">
<ellipse cx="149.001" cy="149.579" rx="145.573" ry="145.579" fill="#0B6961"/>
<ellipse cx="149" cy="149.579" rx="136.36" ry="136.365" fill="#B7A5BB"/>
<path d="M285.36 149.579C285.36 185.745 270.993 220.43 245.421 246.003L149 149.579H285.36Z" fill="#118D82"/>
<path d="M245.421 246.003C219.849 271.576 185.165 285.943 149 285.943L149 149.579L245.421 246.003Z" fill="#FFE161"/>
<path d="M149 285.943C112.835 285.943 78.1518 271.576 52.5795 246.003L149 149.579V285.943Z" fill="#118D82"/>
<path d="M52.5794 246.003C27.0071 220.43 12.6406 185.745 12.6406 149.579L149 149.579L52.5794 246.003Z" fill="#FFE161"/>
<path d="M12.6406 149.579C12.6406 113.412 27.007 78.7276 52.5794 53.1542L149 149.579L12.6406 149.579Z" fill="#118D82"/>
<path d="M52.5794 53.1542C78.1517 27.5809 112.835 13.2139 149 13.2139L149 149.579L52.5794 53.1542Z" fill="#FFE161"/>
<path d="M149 13.2139C185.165 13.2139 219.848 27.5808 245.421 53.1541L149 149.579V13.2139Z" fill="#118D82"/>
<path d="M245.421 53.1542C270.993 78.7275 285.36 113.412 285.36 149.578L149 149.579L245.421 53.1542Z" fill="#FFE161"/>
<ellipse cx="149" cy="149.579" rx="55.2809" ry="55.283" fill="#0B6961"/>
<path d="M149.231 1.56647C140.581 1.56647 133.566 8.52167 133.566 17.0882C133.566 25.6649 149.231 53.7815 149.231 53.7815C149.231 53.7815 164.895 25.6649 164.895 17.0882C164.895 8.52167 157.881 1.56647 149.231 1.56647Z" fill="url(#paint0_linear_2012_30092)"/>
<path fill-rule="evenodd" clip-rule="evenodd" d="M147.863 54.5438L149.231 53.7814L150.599 54.5438L149.231 57L147.863 54.5438ZM150.123 52.1542C153.443 46.0406 164.895 24.4216 164.895 17.0882C164.895 8.52165 157.881 1.56645 149.231 1.56645C140.581 1.56645 133.566 8.52165 133.566 17.0882C133.566 24.4216 145.019 46.0406 148.339 52.1542C148.902 53.1906 149.231 53.7814 149.231 53.7814C147.863 54.5438 147.862 54.5436 147.862 54.5433L147.862 54.5422L147.816 54.46C147.786 54.4056 147.741 54.3251 147.683 54.2201C147.567 54.01 147.398 53.7015 147.183 53.3064C146.752 52.5162 146.137 51.379 145.399 49.988C143.925 47.207 141.957 43.4062 139.988 39.3328C138.022 35.264 136.042 30.9004 134.551 26.9991C133.088 23.1733 132 19.5572 132 17.0882C132 7.64332 139.729 0 149.231 0C158.733 0 166.462 7.64332 166.462 17.0882C166.462 19.5572 165.373 23.1733 163.911 26.9991C162.42 30.9004 160.44 35.264 158.474 39.3328C156.504 43.4062 154.537 47.207 153.062 49.988C152.325 51.379 151.71 52.5162 151.279 53.3064C151.064 53.7015 150.894 54.01 150.779 54.2201C150.721 54.3251 150.676 54.4056 150.646 54.46L150.6 54.5433C150.599 54.5436 150.599 54.5438 149.231 53.7814C149.231 53.7814 149.56 53.1906 150.123 52.1542Z" fill="white"/>
<circle cx="149.23" cy="17.2309" r="13.0759" fill="#0B6961" stroke="#1E1E1E"/>
<path d="M149.938 21.2232C149.548 21.6137 148.915 21.6137 148.524 21.2232L142.584 15.283C141.954 14.6531 142.4 13.5759 143.291 13.5759H155.172C156.062 13.5759 156.509 14.6531 155.879 15.283L149.938 21.2232Z" fill="#1E1E1E"/>
<defs>
<linearGradient id="paint0_linear_2012_30092" x1="149.231" y1="1.56647" x2="149.231" y2="53.7815" gradientUnits="userSpaceOnUse">
<stop offset="0.005" stop-color="#0B6961"/>
<stop offset="1" stop-color="#118D82"/>
</linearGradient>
</defs>
</svg>
